<?xml version="1.0" encoding="utf-8" ?>
<svg xmlns="http://www.w3.org/2000/svg" xmlns:xlink="http://www.w3.org/1999/xlink" width="1024" height="1024">
	<path fill="#FFFFFA" d="M0 0L1024 0L1024 1024L0 1024L0 0Z"/>
	<path fill="#F8F6EE" d="M699.923 234.364C703.392 228.682 708.046 223.569 712.353 218.511C729.667 198.179 748.572 182.077 775.212 175.594C805.809 168.148 835.353 175.696 861.739 191.9C868.223 195.882 874.096 200.812 879.766 205.867C887.98 213.189 895.684 221.301 902.024 230.312C921.311 257.723 931.599 296.035 940.021 328.215C944.06 343.65 948.611 359.032 952.253 374.561C956.701 393.529 960.726 413.731 961.879 433.211C965.472 493.965 946.112 558.022 914.229 609.412C910.036 616.17 898.673 635.693 893.408 639.419C897.685 609.82 896.6 580.093 886.419 551.678C875.027 519.883 853.942 491.395 829.123 468.741C823.344 463.465 817.105 458.693 811.029 453.766C805.249 449.081 793.436 439.293 787.053 436.251C784.797 431.115 783.172 425.447 781.185 420.178C775.459 404.995 768.835 388.608 759.826 375.061C756.04 367.771 750.884 361.213 746.864 354.033C751.05 354.206 754.591 354.897 758.262 352.578L758.019 350.574C753.38 349.012 747.462 349.583 742.573 349.566C731.226 331.793 704.801 304.101 687.898 291.827C682.584 287.206 676.785 283.094 670.959 279.151C677.147 271.018 682.145 261.889 687.596 253.257C691.602 246.915 696.147 240.833 699.923 234.364Z"/>
	<path fill="#B7D5DC" d="M147.599 445.99C146.984 424.883 148.275 403.713 150.043 382.693C152.946 348.187 157.152 314.588 168.474 281.71C185.618 231.931 223.103 192.254 263.05 159.512C278.566 146.794 292.304 135.983 310.516 127.127Q313.849 125.501 317.25 124.023Q320.652 122.545 324.115 121.219Q327.578 119.892 331.096 118.72Q334.615 117.547 338.181 116.531Q341.748 115.515 345.356 114.657Q348.964 113.799 352.606 113.101Q356.248 112.402 359.918 111.866Q363.587 111.329 367.277 110.954C396.568 107.997 425.739 112.64 454.848 115.351C470.624 116.819 486.493 117.204 502.277 118.599C530.428 121.086 559.209 126.469 585.934 135.773C620.879 147.94 655.408 168.462 678.279 198.085C686.985 209.361 693.735 221.583 699.923 234.364C696.147 240.833 691.602 246.915 687.596 253.257C682.145 261.889 677.147 271.018 670.959 279.151C676.785 283.094 682.584 287.206 687.898 291.827L686.812 293.382C681.391 288.919 675.727 284.805 670.06 280.664C620.956 248.027 570.152 232.348 511.211 231.859Q507.667 231.885 504.125 232Q500.584 232.115 497.046 232.318Q493.508 232.521 489.976 232.813Q486.444 233.104 482.921 233.484Q479.398 233.863 475.885 234.331Q472.372 234.799 468.872 235.354Q465.372 235.909 461.887 236.552Q458.402 237.194 454.934 237.924Q451.466 238.653 448.018 239.469Q444.569 240.285 441.142 241.187Q437.715 242.089 434.312 243.076Q430.908 244.063 427.53 245.135Q424.153 246.207 420.803 247.363Q417.453 248.519 414.133 249.758Q410.813 250.997 407.525 252.319Q404.237 253.641 400.983 255.045Q397.729 256.448 394.511 257.933Q391.294 259.417 388.114 260.982Q384.934 262.546 381.794 264.19Q378.655 265.833 375.557 267.555Q372.46 269.276 369.406 271.074Q366.353 272.873 363.345 274.747Q360.337 276.621 357.377 278.569Q354.417 280.518 351.507 282.54Q348.597 284.562 345.738 286.656Q342.879 288.75 340.073 290.914Q337.268 293.079 334.517 295.313Q331.766 297.548 329.072 299.85Q326.378 302.152 323.743 304.521Q321.107 306.89 318.531 309.324Q315.956 311.758 313.442 314.256Q310.928 316.753 308.477 319.313C273.887 355.042 251.341 395.887 237.807 443.549Q237.113 446.277 236.476 449.018Q235.838 451.759 235.258 454.513Q234.677 457.267 234.154 460.032Q233.631 462.798 233.165 465.573Q232.699 468.349 232.291 471.133Q231.883 473.918 231.533 476.711Q231.182 479.503 230.89 482.302Q230.598 485.101 230.363 487.906Q230.129 490.711 229.953 493.52Q229.777 496.328 229.659 499.14Q229.541 501.952 229.481 504.766Q229.422 507.58 229.42 510.394Q229.419 513.209 229.476 516.022Q229.533 518.836 229.648 521.648Q229.764 524.46 229.937 527.269Q230.111 530.078 230.343 532.883Q230.575 535.688 230.865 538.488Q231.154 541.287 231.502 544.08Q231.85 546.873 232.256 549.658Q232.661 552.443 233.125 555.219Q233.588 557.995 234.109 560.76Q234.629 563.526 235.207 566.281Q235.785 569.035 236.42 571.777Q237.055 574.519 237.746 577.247Q238.438 579.975 239.186 582.688Q239.934 585.401 240.738 588.098Q241.542 590.796 242.402 593.475Q243.262 596.155 244.177 598.817Q245.092 601.478 246.062 604.12Q247.032 606.762 248.057 609.383Q249.081 612.005 250.16 614.604Q251.239 617.204 252.371 619.78L250.65 619.683C244.813 605.153 239.395 590.397 235.58 575.188C224.939 532.764 224.222 482.96 236.628 440.831C232.66 437.652 229.124 433.985 225.184 430.772C214.068 421.706 200.955 416.008 186.373 417.711C173.046 419.266 162.799 425.944 154.628 436.386C152.186 439.507 149.966 442.809 147.599 445.99Z"/>
	<path fill="#33332F" d="M236.628 440.831C248.69 394.126 277.74 346.025 312.532 312.77C370.218 257.634 441.365 228.184 521.532 230.112C559.419 230.296 600.072 240.868 634.021 257.449C646.932 263.755 658.992 271.231 670.959 279.151C676.785 283.094 682.584 287.206 687.898 291.827L686.812 293.382C681.391 288.919 675.727 284.805 670.06 280.664C620.956 248.027 570.152 232.348 511.211 231.859Q507.667 231.885 504.125 232Q500.584 232.115 497.046 232.318Q493.508 232.521 489.976 232.813Q486.444 233.104 482.921 233.484Q479.398 233.863 475.885 234.331Q472.372 234.799 468.872 235.354Q465.372 235.909 461.887 236.552Q458.402 237.194 454.934 237.924Q451.466 238.653 448.018 239.469Q444.569 240.285 441.142 241.187Q437.715 242.089 434.312 243.076Q430.908 244.063 427.53 245.135Q424.153 246.207 420.803 247.363Q417.453 248.519 414.133 249.758Q410.813 250.997 407.525 252.319Q404.237 253.641 400.983 255.045Q397.729 256.448 394.511 257.933Q391.294 259.417 388.114 260.982Q384.934 262.546 381.794 264.19Q378.655 265.833 375.557 267.555Q372.46 269.276 369.406 271.074Q366.353 272.873 363.345 274.747Q360.337 276.621 357.377 278.569Q354.417 280.518 351.507 282.54Q348.597 284.562 345.738 286.656Q342.879 288.75 340.073 290.914Q337.268 293.079 334.517 295.313Q331.766 297.548 329.072 299.85Q326.378 302.152 323.743 304.521Q321.107 306.89 318.531 309.324Q315.956 311.758 313.442 314.256Q310.928 316.753 308.477 319.313C273.887 355.042 251.341 395.887 237.807 443.549Q237.113 446.277 236.476 449.018Q235.838 451.759 235.258 454.513Q234.677 457.267 234.154 460.032Q233.631 462.798 233.165 465.573Q232.699 468.349 232.291 471.133Q231.883 473.918 231.533 476.711Q231.182 479.503 230.89 482.302Q230.598 485.101 230.363 487.906Q230.129 490.711 229.953 493.52Q229.777 496.328 229.659 499.14Q229.541 501.952 229.481 504.766Q229.422 507.58 229.42 510.394Q229.419 513.209 229.476 516.022Q229.533 518.836 229.648 521.648Q229.764 524.46 229.937 527.269Q230.111 530.078 230.343 532.883Q230.575 535.688 230.865 538.488Q231.154 541.287 231.502 544.08Q231.85 546.873 232.256 549.658Q232.661 552.443 233.125 555.219Q233.588 557.995 234.109 560.76Q234.629 563.526 235.207 566.281Q235.785 569.035 236.42 571.777Q237.055 574.519 237.746 577.247Q238.438 579.975 239.186 582.688Q239.934 585.401 240.738 588.098Q241.542 590.796 242.402 593.475Q243.262 596.155 244.177 598.817Q245.092 601.478 246.062 604.12Q247.032 606.762 248.057 609.383Q249.081 612.005 250.16 614.604Q251.239 617.204 252.371 619.78L250.65 619.683C244.813 605.153 239.395 590.397 235.58 575.188C224.939 532.764 224.222 482.96 236.628 440.831Z"/>
	<path fill="#9DAF83" d="M147.599 445.99C149.966 442.809 152.186 439.507 154.628 436.386C162.799 425.944 173.046 419.266 186.373 417.711C200.955 416.008 214.068 421.706 225.184 430.772C229.124 433.985 232.66 437.652 236.628 440.831C224.222 482.96 224.939 532.764 235.58 575.188C239.395 590.397 244.813 605.153 250.65 619.683C256.105 632.036 262.033 643.856 268.808 655.534C266.441 663.152 263.472 670.744 261.634 678.495C257.987 678.41 253.436 677.81 249.949 678.796C249.012 679.833 249.049 679.827 248.998 681.23C249.788 682.375 249.852 682.621 251.304 682.882C255.003 683.548 259.431 683.133 263.186 683.114C270.758 683.077 278.334 682.954 285.905 683C327.264 738.781 390.856 779.565 459.866 789.794L461.168 789.985C452.726 800.392 445.856 811.961 437.257 822.328C407.891 861.537 368.565 892.242 321.271 906.208C277.434 919.153 231.38 917.585 190.673 895.33C138.403 866.752 102.091 810.129 85.7606 754.153Q85.0055 751.593 84.3051 749.018Q83.6048 746.442 82.9595 743.853Q82.3143 741.263 81.7244 738.66Q81.1346 736.057 80.6004 733.442Q80.0663 730.827 79.588 728.201Q79.1097 725.575 78.6876 722.94Q78.2655 720.305 77.8997 717.661Q77.5339 715.017 77.2246 712.366Q76.9153 709.715 76.6626 707.058Q76.4099 704.401 76.214 701.74Q76.018 699.078 75.8789 696.412Q75.7398 693.747 75.6576 691.079Q75.5754 688.412 75.5502 685.743Q75.5249 683.074 75.5566 680.405Q75.5883 677.737 75.6769 675.069Q75.7655 672.401 75.911 669.736Q76.0565 667.071 76.2589 664.41Q76.4612 661.749 76.7203 659.093Q76.9794 656.436 77.2951 653.786Q77.6107 651.136 77.9829 648.493Q78.3551 645.85 78.7835 643.216Q79.212 640.581 79.6966 637.957Q80.1811 635.332 80.7216 632.719Q81.2621 630.105 81.8582 627.503Q82.4543 624.902 83.1057 622.313Q83.7572 619.725 84.4638 617.152Q85.1703 614.578 85.9316 612.02Q86.6929 609.462 87.5086 606.92Q88.3243 604.379 89.1941 601.856Q90.0638 599.333 90.9872 596.828Q91.9106 594.324 92.8871 591.84Q93.8637 589.357 94.8931 586.894C102.668 567.815 113.091 549.831 119.837 530.341C124.974 515.499 127.815 499.969 131.95 484.84Q133.302 479.767 134.962 474.786Q136.622 469.805 138.584 464.935Q140.545 460.065 142.801 455.325Q145.057 450.584 147.599 445.99Z"/>
	<path fill="#3D3E3C" d="M511.211 231.859C570.152 232.348 620.956 248.027 670.06 280.664C675.727 284.805 681.391 288.919 686.812 293.382L687.898 291.827C704.801 304.101 731.226 331.793 742.573 349.566C747.462 349.583 753.38 349.012 758.019 350.574L758.262 352.578C754.591 354.897 751.05 354.206 746.864 354.033C750.884 361.213 756.04 367.771 759.826 375.061C768.835 388.608 775.459 404.995 781.185 420.178C783.172 425.447 784.797 431.115 787.053 436.251C793.436 439.293 805.249 449.081 811.029 453.766C817.105 458.693 823.344 463.465 829.123 468.741C853.942 491.395 875.027 519.883 886.419 551.678C896.6 580.093 897.685 609.82 893.408 639.419C891.556 649.62 889.556 659.487 886.247 669.33C880.487 686.466 872.272 701.79 862.715 717.075C837.879 756.793 808.245 786.297 769.717 812.949C721.055 846.612 671.931 879.589 611.833 886.907C593.401 889.152 575.211 889.024 556.905 885.692C508.438 876.873 476.343 849.587 437.257 822.328C445.856 811.961 452.726 800.392 461.168 789.985L459.866 789.794C390.856 779.565 327.264 738.781 285.905 683C278.334 682.954 270.758 683.077 263.186 683.114C259.431 683.133 255.003 683.548 251.304 682.882C249.852 682.621 249.788 682.375 248.998 681.23C249.049 679.827 249.012 679.833 249.949 678.796C253.436 677.81 257.987 678.41 261.634 678.495C263.472 670.744 266.441 663.152 268.808 655.534C262.033 643.856 256.105 632.036 250.65 619.683L252.371 619.78Q251.239 617.204 250.16 614.604Q249.081 612.005 248.057 609.383Q247.032 606.762 246.062 604.12Q245.092 601.478 244.177 598.817Q243.262 596.155 242.402 593.475Q241.542 590.796 240.738 588.098Q239.934 585.401 239.186 582.688Q238.438 579.975 237.746 577.247Q237.055 574.519 236.42 571.777Q235.785 569.035 235.207 566.281Q234.629 563.526 234.109 560.76Q233.588 557.995 233.125 555.219Q232.661 552.443 232.256 549.657Q231.85 546.872 231.502 544.08Q231.154 541.287 230.865 538.487Q230.575 535.688 230.343 532.883Q230.111 530.078 229.937 527.269Q229.764 524.46 229.648 521.648Q229.533 518.836 229.476 516.022Q229.419 513.209 229.42 510.394Q229.422 507.58 229.481 504.766Q229.541 501.952 229.659 499.14Q229.777 496.328 229.953 493.52Q230.129 490.711 230.363 487.906Q230.598 485.101 230.89 482.302Q231.182 479.503 231.533 476.711Q231.883 473.918 232.291 471.133Q232.699 468.349 233.165 465.573Q233.631 462.798 234.154 460.032Q234.677 457.267 235.258 454.513Q235.838 451.759 236.476 449.018Q237.113 446.277 237.807 443.549C251.341 395.887 273.887 355.042 308.477 319.313Q310.928 316.753 313.442 314.256Q315.956 311.758 318.531 309.324Q321.107 306.89 323.743 304.521Q326.378 302.152 329.072 299.85Q331.766 297.548 334.517 295.313Q337.268 293.079 340.073 290.914Q342.879 288.75 345.738 286.656Q348.597 284.562 351.507 282.54Q354.417 280.518 357.377 278.569Q360.337 276.621 363.345 274.747Q366.352 272.873 369.406 271.074Q372.46 269.276 375.557 267.555Q378.655 265.833 381.794 264.19Q384.934 262.546 388.114 260.982Q391.294 259.417 394.511 257.933Q397.729 256.448 400.983 255.045Q404.237 253.641 407.525 252.319Q410.813 250.997 414.133 249.758Q417.453 248.519 420.803 247.363Q424.153 246.207 427.53 245.135Q430.908 244.063 434.312 243.076Q437.715 242.089 441.142 241.187Q444.569 240.285 448.018 239.469Q451.466 238.653 454.934 237.924Q458.402 237.194 461.887 236.552Q465.372 235.909 468.872 235.354Q472.372 234.799 475.885 234.331Q479.398 233.863 482.921 233.484Q486.444 233.104 489.976 232.813Q493.508 232.521 497.046 232.318Q500.584 232.115 504.125 232Q507.667 231.885 511.211 231.859Z"/>
	<path fill="#F8F6EE" d="M533.567 412.459L539.439 428.172C537.557 431.651 535.833 435.819 533.521 438.987C533.313 430.163 533.539 421.288 533.567 412.459Z"/>
	<path fill="#F8F6EE" d="M746.504 358.875Q752.635 367.093 758.137 375.745C767.826 393.255 776.748 412.24 782.696 431.374C775.179 430.191 752.06 405.639 746.404 399.082L746.504 358.875Z"/>
	<path fill="#B1D1DA" d="M358.912 426.404C359.956 427.596 360.485 429.297 361.053 430.766C366.356 444.477 370.84 458.567 376.08 472.329L395.489 523.899C399.452 534.483 403.637 545.015 407.21 555.736Q385.981 555.457 364.75 555.497L315.788 555.57C320.452 538.65 326.522 522.318 332.047 505.687L348.258 458.319C351.837 447.678 355.121 436.979 358.912 426.404Z"/>
	<path fill="#FEE5A7" d="M746.404 399.082C752.06 405.639 775.179 430.191 782.696 431.374C784.901 436.347 786.124 442.181 787.408 447.466Q789.44 455.658 790.973 463.958Q792.505 472.258 793.533 480.636Q794.561 489.014 795.08 497.438Q795.599 505.863 795.607 514.303C793.942 557.553 784.028 597.663 764.618 636.406Q758.761 646.398 752.723 656.282C751.008 659.125 748.657 662.274 747.469 665.357L746.923 665.597C745.676 663.019 746.103 424.177 746.404 399.082Z"/>
	<path fill="#9DAF83" d="M237.807 443.549C247.303 453.431 257.318 463.514 267.937 472.178C276.891 479.484 286.677 486.087 296.214 492.616C303.188 497.39 310.784 502.884 318.623 506.096C311.152 526.449 304.67 547.149 297.968 567.762L284.839 607.075C279.858 622.28 275.15 637.7 269.41 652.642C262.687 642.393 257.205 631.024 252.371 619.78Q251.239 617.204 250.16 614.604Q249.081 612.005 248.057 609.383Q247.032 606.762 246.062 604.12Q245.092 601.478 244.177 598.817Q243.262 596.155 242.402 593.475Q241.542 590.796 240.738 588.098Q239.934 585.401 239.186 582.688Q238.438 579.975 237.746 577.247Q237.055 574.519 236.42 571.777Q235.785 569.035 235.207 566.281Q234.629 563.526 234.109 560.76Q233.588 557.995 233.125 555.219Q232.661 552.443 232.256 549.657Q231.85 546.872 231.502 544.08Q231.154 541.287 230.865 538.487Q230.575 535.688 230.343 532.883Q230.111 530.078 229.937 527.269Q229.764 524.46 229.648 521.648Q229.533 518.836 229.476 516.022Q229.419 513.209 229.42 510.394Q229.422 507.58 229.481 504.766Q229.541 501.952 229.659 499.14Q229.777 496.328 229.953 493.52Q230.129 490.711 230.363 487.906Q230.598 485.101 230.89 482.302Q231.182 479.503 231.533 476.711Q231.883 473.918 232.291 471.133Q232.699 468.349 233.165 465.573Q233.631 462.798 234.154 460.032Q234.677 457.267 235.258 454.513Q235.838 451.759 236.476 449.018Q237.113 446.277 237.807 443.549Z"/>
	<path fill="#F8F6EE" d="M670.06 280.664C675.727 284.805 681.391 288.919 686.812 293.382C706.421 310 724.956 328.155 739.518 349.472Q721.02 349.299 702.522 349.502C691.916 377.634 682.251 407.053 672.271 435.485C659.924 470.659 647.1 505.726 635.13 541.026L585.813 409.395Q580.322 394.671 574.635 380.022C570.76 370.251 566.4 360.149 563.566 350.015Q545.229 349.847 526.893 350.082C547.382 325.372 576.386 313.253 607.844 309.905C617.357 308.892 627.17 309.712 636.565 307.826C652.211 304.685 661.534 293.362 670.06 280.664Z"/>
	<path fill="#9DAF83" d="M309.154 572.982Q361.125 572.693 413.094 573.204C418.405 585.741 422.21 599.084 426.742 611.924L449.215 674.516C441.482 674.996 428.071 673.813 421.452 675.706C420.723 676.396 420.486 676.446 420.213 677.465C419.785 679.064 420.028 680.719 420.873 682.134C427.556 684.196 439.108 683.065 446.336 683.076C462.516 683.099 478.839 682.692 494.998 683.44C496.478 717.192 487.621 741.21 471.98 770.481C468.72 776.581 464.952 782.429 461.818 788.587C447.282 786.014 432.701 783.204 418.666 778.535C367.711 761.583 319.939 726.192 288.104 683.069C294.805 682.97 311.419 683.799 317.138 682.308C317.726 681.801 318.03 681.465 318.238 680.68C318.659 679.093 318.546 677.363 317.627 675.993C314.528 674.053 288.971 675.221 283.259 675.248L278.439 667.498C287.867 635.809 298.46 604.268 309.154 572.982Z"/>
	<path fill="#FEE5A7" d="M617.457 629.907L669.855 481.164L686.914 433.178C689.769 425.274 692.291 416.92 695.842 409.323C696.556 419.545 696.253 429.942 696.285 440.188L696.18 498.674L696.192 676.087L675.28 675.97C675.348 678.053 675.228 680.086 676.164 681.994C676.473 682.235 676.733 682.557 677.089 682.719C679.626 683.874 726.917 682.885 733.947 683.078C728.264 690.052 722.136 696.792 716.623 703.879L715.914 704.495C712.534 707.465 709.671 711.155 706.385 714.268Q692.11 727.775 676.393 739.574C625.654 777.663 560.503 796.239 497.3 792.75C494.735 792.608 491.981 792.6 489.445 792.214C480.176 791.652 470.972 790.081 461.818 788.587C464.952 782.429 468.72 776.581 471.98 770.481C487.621 741.21 496.478 717.192 494.998 683.44C498.867 683.444 505.373 684.84 508.726 682.98C509.815 682.375 510.433 681.241 510.6 680.038C510.758 678.906 510.551 677.593 509.714 676.775C507.339 674.453 501.501 675.414 498.394 675.487C495.811 669.987 494.042 663.984 492.07 658.237C488.153 646.822 484.439 635.296 480.11 624.03C483.938 621.685 488.432 620.245 492.558 618.473Q498.784 615.729 504.743 612.446C510.667 609.235 515.567 604.312 521.431 601.276C521.484 610.592 521.165 682.919 522.861 685.924C525.847 686.618 529.418 686.143 532.484 686.012C533.63 627.04 532.772 567.98 532.924 508.994C532.984 485.701 532.672 462.265 533.521 438.987C535.833 435.819 537.557 431.651 539.439 428.172C546.619 445.423 553.062 462.949 559.719 480.401L596.866 577.657C603.614 594.936 608.883 613.444 617.457 629.907Z"/>
	<path fill="#FEE5A7" d="M787.053 436.251C793.436 439.293 805.249 449.081 811.029 453.766C817.105 458.693 823.344 463.465 829.123 468.741C853.942 491.395 875.027 519.883 886.419 551.678C896.6 580.093 897.685 609.82 893.408 639.419C891.556 649.62 889.556 659.487 886.247 669.33C880.487 686.466 872.272 701.79 862.715 717.075C837.879 756.793 808.245 786.297 769.717 812.949C721.055 846.612 671.931 879.589 611.833 886.907C593.401 889.152 575.211 889.024 556.905 885.692C508.438 876.873 476.343 849.587 437.257 822.328C445.856 811.961 452.726 800.392 461.168 789.985C470.046 791.878 479.362 793.084 488.414 793.735C501.141 795.876 520.397 794.915 533.398 793.906C588.602 789.621 639.478 771.114 683.413 737.192C696.523 727.071 709.186 715.733 719.963 703.13C725.413 698.547 731.887 689.172 736.562 683.418C743.142 683.464 760.696 684.596 766.142 682.808C766.822 680.544 766.582 677.985 766.579 675.635Q756.735 675.884 746.889 676.001C746.776 672.121 746.741 670.044 749.048 666.698C755.375 657.182 761.721 647.308 766.76 637.041C770.572 630.839 773.434 623.59 776.241 616.88Q778.939 610.456 781.31 603.905Q783.682 597.353 785.72 590.691Q787.758 584.028 789.458 577.271Q791.158 570.514 792.515 563.681Q793.873 556.847 794.884 549.953Q795.896 543.06 796.559 536.124Q797.222 529.188 797.534 522.228Q797.847 515.267 797.809 508.3C797.428 483.407 792.901 460.344 787.053 436.251Z"/>
	<path fill="#B1D1DA" d="M511.211 231.859C570.152 232.348 620.956 248.027 670.06 280.664C661.534 293.362 652.211 304.685 636.565 307.826C627.17 309.712 617.357 308.892 607.844 309.905C576.386 313.253 547.382 325.372 526.893 350.082C522.671 350.047 512.312 348.965 509.154 351.482C508.93 352.772 508.816 352.822 509.469 353.933C512.878 355.543 518.912 352.054 520.49 355.983C521.999 359.743 521.2 403.292 521.234 411.053L521.431 601.276C515.567 604.312 510.667 609.235 504.743 612.446Q498.784 615.729 492.558 618.473C488.432 620.245 483.938 621.685 480.11 624.03C475.733 611.471 471.863 598.737 467.502 586.167Q437.696 500.663 406.882 415.516C399.146 394.205 391.701 372.749 383.557 351.593L372.026 351.549C366.538 365.393 362.244 379.798 357.164 393.816C349.523 414.903 342.302 436.057 335.011 457.259C329.431 473.486 323.658 489.689 318.623 506.096C310.784 502.884 303.188 497.39 296.214 492.616C286.677 486.087 276.891 479.484 267.937 472.178C257.318 463.514 247.303 453.431 237.807 443.549C251.341 395.887 273.887 355.042 308.477 319.313Q310.928 316.753 313.442 314.256Q315.956 311.758 318.531 309.324Q321.107 306.89 323.743 304.521Q326.378 302.152 329.072 299.85Q331.766 297.548 334.517 295.313Q337.268 293.079 340.073 290.914Q342.879 288.75 345.738 286.656Q348.597 284.562 351.507 282.54Q354.417 280.518 357.377 278.569Q360.337 276.621 363.345 274.747Q366.352 272.873 369.406 271.074Q372.46 269.276 375.557 267.555Q378.655 265.833 381.794 264.19Q384.934 262.546 388.114 260.982Q391.294 259.417 394.511 257.933Q397.729 256.448 400.983 255.045Q404.237 253.641 407.525 252.319Q410.813 250.997 414.133 249.758Q417.453 248.519 420.803 247.363Q424.153 246.207 427.53 245.135Q430.908 244.063 434.312 243.076Q437.715 242.089 441.142 241.187Q444.569 240.285 448.018 239.469Q451.466 238.653 454.934 237.924Q458.402 237.194 461.887 236.552Q465.372 235.909 468.872 235.354Q472.372 234.799 475.885 234.331Q479.398 233.863 482.921 233.484Q486.444 233.104 489.976 232.813Q493.508 232.521 497.046 232.318Q500.584 232.115 504.125 232Q507.667 231.885 511.211 231.859Z"/>
</svg>
